<svg width="315" height="168" viewBox="0 0 315 168" fill="none" xmlns="http://www.w3.org/2000/svg">
<rect x="3" y="18" width="150" height="150" fill="#6B65F2"/>
<path d="M60.1825 70.3672H52.4055C52.2635 69.361 51.9735 68.4673 51.5355 67.6861C51.0975 66.893 50.5353 66.2183 49.8487 65.6619C49.1622 65.1056 48.3691 64.6794 47.4695 64.3835C46.5817 64.0876 45.617 63.9396 44.5753 63.9396C42.6932 63.9396 41.0537 64.4072 39.657 65.3423C38.2602 66.2656 37.1771 67.6151 36.4077 69.3906C35.6383 71.1544 35.2536 73.2969 35.2536 75.8182C35.2536 78.4105 35.6383 80.5885 36.4077 82.3523C37.1889 84.116 38.2779 85.4477 39.6747 86.3473C41.0715 87.2469 42.6873 87.6967 44.522 87.6967C45.5518 87.6967 46.5047 87.5606 47.3807 87.2884C48.2685 87.0161 49.0556 86.6196 49.7422 86.0987C50.4287 85.5661 50.9969 84.9209 51.4467 84.1634C51.9084 83.4058 52.228 82.5417 52.4055 81.571L60.1825 81.6065C59.9813 83.2756 59.4782 84.8854 58.6733 86.4361C57.8802 87.9749 56.8089 89.3539 55.4595 90.5732C54.1219 91.7805 52.5239 92.7393 50.6655 93.4496C48.8189 94.148 46.7296 94.4972 44.3977 94.4972C41.1544 94.4972 38.2543 93.7633 35.6974 92.2955C33.1525 90.8277 31.1402 88.7029 29.6605 85.9212C28.1927 83.1394 27.4588 79.7718 27.4588 75.8182C27.4588 71.8527 28.2045 68.4792 29.696 65.6974C31.1875 62.9157 33.2116 60.7969 35.7685 59.3409C38.3253 57.8731 41.2017 57.1392 44.3977 57.1392C46.5047 57.1392 48.4579 57.4351 50.2571 58.027C52.0682 58.6188 53.6721 59.483 55.0689 60.6193C56.4657 61.7438 57.602 63.1229 58.478 64.7564C59.3658 66.3899 59.9339 68.2602 60.1825 70.3672ZM85.4222 68.0945C85.2802 66.6622 84.6706 65.5495 83.5934 64.7564C82.5162 63.9633 81.0543 63.5668 79.2077 63.5668C77.953 63.5668 76.8936 63.7443 76.0295 64.0994C75.1654 64.4427 74.5025 64.9221 74.0408 65.5376C73.591 66.1532 73.3661 66.8516 73.3661 67.6328C73.3424 68.2839 73.4786 68.852 73.7745 69.3374C74.0823 69.8227 74.5025 70.2429 75.0352 70.598C75.5678 70.9413 76.1834 71.2431 76.8817 71.5036C77.5801 71.7521 78.3259 71.9652 79.119 72.1428L82.386 72.924C83.9722 73.2791 85.4281 73.7526 86.7539 74.3445C88.0797 74.9363 89.2279 75.6643 90.1985 76.5284C91.1692 77.3925 91.9208 78.4105 92.4535 79.5824C92.998 80.7543 93.2762 82.0978 93.288 83.6129C93.2762 85.8383 92.708 87.7678 91.5835 89.4013C90.4708 91.023 88.8609 92.2836 86.7539 93.1832C84.6587 94.071 82.1315 94.5149 79.1722 94.5149C76.2366 94.5149 73.6798 94.0651 71.5018 93.1655C69.3356 92.2659 67.6429 90.9342 66.4237 89.1705C65.2163 87.3949 64.583 85.1991 64.5238 82.5831H71.9634C72.0463 83.8023 72.3955 84.8203 73.011 85.6371C73.6384 86.442 74.4729 87.0516 75.5146 87.4659C76.5681 87.8684 77.7577 88.0696 79.0835 88.0696C80.3855 88.0696 81.516 87.8802 82.4748 87.5014C83.4454 87.1226 84.1971 86.5959 84.7298 85.9212C85.2624 85.2464 85.5288 84.4711 85.5288 83.5952C85.5288 82.7784 85.2861 82.0919 84.8008 81.5355C84.3273 80.9792 83.6289 80.5057 82.7056 80.1151C81.7942 79.7244 80.6755 79.3693 79.3498 79.0497L75.3903 78.0554C72.3245 77.3097 69.9038 76.1437 68.1282 74.5575C66.3526 72.9714 65.4708 70.8348 65.4826 68.1477C65.4708 65.946 66.0567 64.0225 67.2404 62.3771C68.436 60.7318 70.0754 59.4474 72.1587 58.5241C74.2421 57.6009 76.6095 57.1392 79.261 57.1392C81.9599 57.1392 84.3155 57.6009 86.3278 58.5241C88.3519 59.4474 89.9263 60.7318 91.0508 62.3771C92.1753 64.0225 92.7553 65.9283 92.7908 68.0945H85.4222ZM118.186 68.0945C118.044 66.6622 117.434 65.5495 116.357 64.7564C115.28 63.9633 113.818 63.5668 111.971 63.5668C110.717 63.5668 109.657 63.7443 108.793 64.0994C107.929 64.4427 107.266 64.9221 106.805 65.5376C106.355 66.1532 106.13 66.8516 106.13 67.6328C106.106 68.2839 106.242 68.852 106.538 69.3374C106.846 69.8227 107.266 70.2429 107.799 70.598C108.331 70.9413 108.947 71.2431 109.645 71.5036C110.344 71.7521 111.09 71.9652 111.883 72.1428L115.15 72.924C116.736 73.2791 118.192 73.7526 119.518 74.3445C120.843 74.9363 121.992 75.6643 122.962 76.5284C123.933 77.3925 124.684 78.4105 125.217 79.5824C125.762 80.7543 126.04 82.0978 126.052 83.6129C126.04 85.8383 125.472 87.7678 124.347 89.4013C123.234 91.023 121.625 92.2836 119.518 93.1832C117.422 94.071 114.895 94.5149 111.936 94.5149C109 94.5149 106.443 94.0651 104.265 93.1655C102.099 92.2659 100.407 90.9342 99.1873 89.1705C97.9799 87.3949 97.3467 85.1991 97.2875 82.5831H104.727C104.81 83.8023 105.159 84.8203 105.775 85.6371C106.402 86.442 107.237 87.0516 108.278 87.4659C109.332 87.8684 110.521 88.0696 111.847 88.0696C113.149 88.0696 114.28 87.8802 115.238 87.5014C116.209 87.1226 116.961 86.5959 117.493 85.9212C118.026 85.2464 118.292 84.4711 118.292 83.5952C118.292 82.7784 118.05 82.0919 117.564 81.5355C117.091 80.9792 116.393 80.5057 115.469 80.1151C114.558 79.7244 113.439 79.3693 112.113 79.0497L108.154 78.0554C105.088 77.3097 102.667 76.1437 100.892 74.5575C99.1163 72.9714 98.2344 70.8348 98.2463 68.1477C98.2344 65.946 98.8204 64.0225 100.004 62.3771C101.2 60.7318 102.839 59.4474 104.922 58.5241C107.006 57.6009 109.373 57.1392 112.025 57.1392C114.724 57.1392 117.079 57.6009 119.091 58.5241C121.116 59.4474 122.69 60.7318 123.814 62.3771C124.939 64.0225 125.519 65.9283 125.555 68.0945H118.186Z" fill="white"/>
<path d="M60.0099 112.975V106.636H89.875V112.975H78.7422V143H71.1428V112.975H60.0099ZM128.549 124.818C128.549 128.784 127.798 132.157 126.294 134.939C124.803 137.721 122.767 139.845 120.186 141.313C117.618 142.769 114.73 143.497 111.522 143.497C108.29 143.497 105.39 142.763 102.821 141.295C100.253 139.828 98.2227 137.703 96.7312 134.921C95.2397 132.139 94.494 128.772 94.494 124.818C94.494 120.853 95.2397 117.479 96.7312 114.697C98.2227 111.916 100.253 109.797 102.821 108.341C105.39 106.873 108.29 106.139 111.522 106.139C114.73 106.139 117.618 106.873 120.186 108.341C122.767 109.797 124.803 111.916 126.294 114.697C127.798 117.479 128.549 120.853 128.549 124.818ZM120.755 124.818C120.755 122.25 120.37 120.083 119.6 118.32C118.843 116.556 117.772 115.218 116.387 114.307C115.002 113.395 113.38 112.94 111.522 112.94C109.663 112.94 108.042 113.395 106.657 114.307C105.272 115.218 104.194 116.556 103.425 118.32C102.667 120.083 102.289 122.25 102.289 124.818C102.289 127.387 102.667 129.553 103.425 131.317C104.194 133.08 105.272 134.418 106.657 135.33C108.042 136.241 109.663 136.697 111.522 136.697C113.38 136.697 115.002 136.241 116.387 135.33C117.772 134.418 118.843 133.08 119.6 131.317C120.37 129.553 120.755 127.387 120.755 124.818ZM169.661 124.818C169.661 128.784 168.909 132.157 167.406 134.939C165.914 137.721 163.878 139.845 161.298 141.313C158.729 142.769 155.841 143.497 152.633 143.497C149.401 143.497 146.501 142.763 143.933 141.295C141.364 139.828 139.334 137.703 137.843 134.921C136.351 132.139 135.605 128.772 135.605 124.818C135.605 120.853 136.351 117.479 137.843 114.697C139.334 111.916 141.364 109.797 143.933 108.341C146.501 106.873 149.401 106.139 152.633 106.139C155.841 106.139 158.729 106.873 161.298 108.341C163.878 109.797 165.914 111.916 167.406 114.697C168.909 117.479 169.661 120.853 169.661 124.818ZM161.866 124.818C161.866 122.25 161.481 120.083 160.712 118.32C159.954 116.556 158.883 115.218 157.498 114.307C156.113 113.395 154.491 112.94 152.633 112.94C150.775 112.94 149.153 113.395 147.768 114.307C146.383 115.218 145.306 116.556 144.536 118.32C143.779 120.083 143.4 122.25 143.4 124.818C143.4 127.387 143.779 129.553 144.536 131.317C145.306 133.08 146.383 134.418 147.768 135.33C149.153 136.241 150.775 136.697 152.633 136.697C154.491 136.697 156.113 136.241 157.498 135.33C158.883 134.418 159.954 133.08 160.712 131.317C161.481 129.553 161.866 127.387 161.866 124.818ZM177.356 143V106.636H185.044V136.661H200.634V143H177.356ZM207.725 143V106.636H222.285C224.96 106.636 227.191 107.033 228.979 107.826C230.766 108.619 232.109 109.72 233.009 111.129C233.909 112.525 234.358 114.135 234.358 115.958C234.358 117.379 234.074 118.627 233.506 119.705C232.938 120.77 232.157 121.646 231.162 122.332C230.18 123.007 229.055 123.487 227.789 123.771V124.126C229.174 124.185 230.47 124.576 231.677 125.298C232.897 126.02 233.885 127.032 234.643 128.334C235.4 129.624 235.779 131.163 235.779 132.95C235.779 134.88 235.3 136.602 234.341 138.117C233.394 139.621 231.991 140.81 230.133 141.686C228.274 142.562 225.984 143 223.261 143H207.725ZM215.413 136.714H221.681C223.823 136.714 225.386 136.306 226.368 135.489C227.351 134.661 227.842 133.56 227.842 132.187C227.842 131.181 227.599 130.293 227.114 129.523C226.629 128.754 225.936 128.15 225.037 127.712C224.149 127.274 223.09 127.055 221.858 127.055H215.413V136.714ZM215.413 121.853H221.113C222.166 121.853 223.101 121.67 223.918 121.303C224.747 120.924 225.398 120.391 225.871 119.705C226.357 119.018 226.599 118.195 226.599 117.237C226.599 115.923 226.132 114.863 225.197 114.058C224.273 113.253 222.959 112.851 221.255 112.851H215.413V121.853ZM276.198 124.818C276.198 128.784 275.446 132.157 273.943 134.939C272.451 137.721 270.415 139.845 267.835 141.313C265.266 142.769 262.378 143.497 259.17 143.497C255.939 143.497 253.038 142.763 250.47 141.295C247.901 139.828 245.871 137.703 244.38 134.921C242.888 132.139 242.142 128.772 242.142 124.818C242.142 120.853 242.888 117.479 244.38 114.697C245.871 111.916 247.901 109.797 250.47 108.341C253.038 106.873 255.939 106.139 259.17 106.139C262.378 106.139 265.266 106.873 267.835 108.341C270.415 109.797 272.451 111.916 273.943 114.697C275.446 117.479 276.198 120.853 276.198 124.818ZM268.403 124.818C268.403 122.25 268.018 120.083 267.249 118.32C266.491 116.556 265.42 115.218 264.035 114.307C262.65 113.395 261.029 112.94 259.17 112.94C257.312 112.94 255.69 113.395 254.305 114.307C252.92 115.218 251.843 116.556 251.074 118.32C250.316 120.083 249.937 122.25 249.937 124.818C249.937 127.387 250.316 129.553 251.074 131.317C251.843 133.08 252.92 134.418 254.305 135.33C255.69 136.241 257.312 136.697 259.17 136.697C261.029 136.697 262.65 136.241 264.035 135.33C265.42 134.418 266.491 133.08 267.249 131.317C268.018 129.553 268.403 127.387 268.403 124.818ZM289.393 106.636L296.726 119.03H297.01L304.379 106.636H313.061L301.964 124.818L313.31 143H304.467L297.01 130.589H296.726L289.268 143H280.462L291.843 124.818L280.675 106.636H289.393Z" fill="url(#paint0_linear_5_7)"/>
<defs>
<linearGradient id="paint0_linear_5_7" x1="58" y1="130.5" x2="315" y2="130.5" gradientUnits="userSpaceOnUse">
<stop stop-color="#32EA94"/>
<stop offset="1" stop-color="#6B65F2"/>
</linearGradient>
</defs>
</svg>
